<?xml version="1.0" standalone="no"?>
<?xml-stylesheet type="text/css" href="handson.css" ?>
<svg xmlns="http://www.w3.org/2000/svg" width="900" height="600"  viewBox="0 0 900 600" xmlns:xlink="http://www.w3.org/1999/xlink" >

    <defs>
        <g id="speechBubble" >
            <ellipse cx="0" cy="0" rx="100" ry="70" fill="white" stroke="black" stroke-width="2" />
            <path d="M-50 60 Q -60 75 -75 75 Q -65 75 -60 55.3" fill="white" stroke="black" stroke-width="2" />
        </g>

        <g id="bgMountains">
            <path d="M0 250 L 40 240 L 50 235 L 60 220 L 70 230 L 90 220 L 120 210 L 140 200 L 165 215 L180 217 L 190 208 L 230 224 L 250 220 L 270 200 L 300 225 L 350 210 L 380 240 L 430 250 L 480 240 L 540 220 L 550 200 L 600 215 L 625 225 L 650 210 L 700 200 L 725 205 L 760 240 L 800 200 L 830 215 L 850 210 L 875 230 L 900 250 L 900 600 L 0 600 Z" fill="#d9d9d9"/>
        </g>

        <g id="k2">
            <path d="M-10 290 L80 235 L100 230 L175 320 L-10 400" fill="white"/>

            <path d="M250 340 L285 300 L300 275 L340 245 L365 235 L375 210 L415 175 L425 170 L465 130 L500 100 L600 500 Z" fill="lightsteelblue"/>
            <path d="M205 310 L245 310 L330 335 L360 370 L420 280 L430 280 L463 220 L460 225 L450 225 L500 160 L505 130 L500 100 L520 105 L570 145 L590 170 L675 190 L730 230 L765 240 L816 300 L920 375 L1200 620 L-10 620 Z" fill="aliceblue" />
            <path d="M675 190 L665 255 L660 315 L680 315 L730 420 L920 620 L920 590 L630 400 L620 370 L630 355 L600 330 L590 335 L600 350 L580 380 L620 415 L690 620 L 350 620 L350 500 L375 455 L400 400 L420 380 L420 360 L445 340 L500 300 L500 345 L540 220 L575 290 L585 285 L575 230 L590 220 L590 210 L600 210 L570 190 L595 175 L615 200 Z" fill="#DDD" />

            <path d="M-20 340 L70 330 L120 300 L170 300 L190 280 L275 450 L310 475 L400 550 L-20 560 Z" fill="ghostwhite" />
            <path d="M-10 410 L45 400 L80 430 L130 450 L170 410 L200 445 L220 435 L240 475 L270 460 L310 490 L320 480 L500 620 L-10 620 Z" fill="gainsboro" />
        </g>

        <radialGradient  id="leafGrad" cx="45%" cy="10%" r="70%" fx="50%" fy="60%">

            <stop offset="0%" style="stop-color:black;stop-opacity:1"/>

            <stop offset="55%" style="stop-color:darkgreen;stop-opacity:1"/>

            <stop offset="75%" style="stop-color:lightgreen;stop-opacity:1"/>

            <stop offset="90%" style="stop-color:White;stop-opacity:1"/>

        </radialGradient>

        <linearGradient  id="trunkGrad" gradientUnits="userSpaceOnUse"
            x1="0" y1="0" x2="0" y2="70">

            <stop offset="0" style="stop-color:black"/>

            <stop offset="0.8" style="stop-color:black"/>

            <stop offset="0.95" style="stop-color:brown"/>

            <stop offset="1" style="stop-color:sienna"/>

        </linearGradient>

        <g id="leafRow">
            <path d="M 0 0
                Q 9 10 20 10
                Q 17 12 13 12
                Q 16 15 18 15
                Q 9 15 8 14
                Q 7 14 12 19
                Q 2 18 2 15
                Q 2 21 1 22
                Q -3 18 -4 15
                Q -5 18 -10 21
                Q -7 18 -8 14
                Q -11 19 -16 17
                Q -11 15 -12 14
                Q -16 14 -20 12
                Q -10 10 0 0"
                fill="url(#leafGrad)" />
            </g>

            <g id="tree">
                <path d="M 0 0 L5 70 Q 0 72 -5 70 Z" fill="url(#trunkGrad)" />
                <use xlink:href="#leafRow" transform="translate(0, 38) scale(1.15, 1.2)"/>
                <use xlink:href="#leafRow" transform="translate(0, 30) scale(1, 1.1)"/>
                <use xlink:href="#leafRow" transform="translate(0, 23) scale(0.9, 1)"/>
                <use xlink:href="#leafRow" transform="translate(0, 15) scale(0.75, 0.95)"/>
                <use xlink:href="#leafRow" transform="translate(0, 9) scale(0.6, 0.85)"/>
                <use xlink:href="#leafRow" transform="translate(0, 3) scale(0.4, 0.75)"/>
                <use xlink:href="#leafRow" transform="translate(0, 0) scale(0.3, 0.6)"/>
            </g>

            <radialGradient  id="gradSun" cx="50%" cy="50%" r="50%" fx="50%" fy="50%">

                <stop offset="0%" style="stop-color:yellow;stop-opacity:1"/>

                <stop offset="60%" style="stop-color:gold;stop-opacity:1"/>

                <stop offset="85%" style="stop-color:orange;stop-opacity:0.6"/>

                <stop offset="100%" style="stop-color:red;stop-opacity:0"/>

            </radialGradient>

            <g id="sun">
                <circle cx="0" cy="0" r="50" fill="url(#gradSun)"/>
            </g>

            <!-- MR Poopy Butthole -->

            <g id="mpbhEye">
                <circle cx="0" cy="0" r="7" fill="white" stroke="black" />
                <circle cx="0" cy="0" r="1" fill="black" stroke="black" />
            </g>

            <g id="tooth">
                <path d="M-2 0 Q -2.5 1 0 2 Q 2.5 1 2 0" fill="white" stroke="black" />
            </g>

            <g id="mpbhHead">
                <rect x="-10" y="-30" width="20" height="60" rx="10" ry="10" fill="#feffb1" stroke="black" />
                <use xlink:href="#mpbhEye" transform="translate(-9, -5)"/>
                <use xlink:href="#mpbhEye" transform="translate(9, -5)"/>
                <path d="M -2 0 Q 0 22 2 0" stroke="black" fill="none" />
                <path d="M -7 -25 L 7 -25 L 9 -40 Q 0 -45 -9 -40 Z" fill="#505d66" stroke="black" />
                <path d="M -5 -25 L -6.5 -40 L -4.5 -41 Z" fill="#6c8485" stroke="none" />
                <path d="M -7 -25 L 7 -25 L 7.5 -27 L -7.5 -27 Z" fill="#71b4aa" stroke="black" />
                <path d="M -12 -25 L -11 -22 L 11 -22 L 12 -25 Z" fill="#505d66" stroke="black" />

                <path d="M 0 14 Q -6 13 -6.5 14 Q -6.5 17 0 17 Q 6.5 17 6.5 14 Q 6 13 0 14" fill="#5a0f19" stroke="black" />
                <use xlink:href="#tooth" transform="translate(5, 14) scale(0.7)" />
                <use xlink:href="#tooth" transform="translate(-5, 14) scale(0.7)" />
                <use xlink:href="#tooth" transform="translate(3.2, 14) scale(0.8)" />
                <use xlink:href="#tooth" transform="translate(-3.2, 14) scale(0.8)" />
                <use xlink:href="#tooth" transform="translate(1.5, 14) scale(0.8)" />
                <use xlink:href="#tooth" transform="translate(-1.5, 14) scale(0.8)" />

                <path d="M 0 14 Q -6 13 -6.5 14 Q -6.5 17 0 17 Q 6.5 17 6.5 14 Q 6 13 0 14" fill="none" stroke="black" />
            </g>

            <g id="mpbhLeg">
                <path d="M-2.5 13 L -2.5 40 L 2.5 40 L 2.5 13" fill="#feffb1" stroke="black" />
                <path d="M-5 0 L -5 15 Q 0 13 5 15 L 5 0" fill="#5c6c64" stroke="black" />
                <path d="M-3 37 L -3 41 L 3 41 L 3 37 Z" fill="white" stroke="black" />
                <path d="M 3.5 41 Q -15 40 -15 44 L 3.7 46 Q 4 40 3.5 41 " fill="#9a5a4f" stroke="black" />
                <path d="M -15 44 Q 0 49 3.7 46 Q 0 42 -15 44" fill="#704e4b" stroke="black" />
            </g>

            <g id="mpbhArm">
                <path d="M -3.5 9 L -3.5 50 Q -10 53 -8 53 Q -6 53 -4 53 L -6.5 59 Q -5 60 -2.5 55 Q -2 61 -1 61 Q 0.5 58 0 54 Q 1.5 61 3 60.5 Q 5 60 2.5 54 Q 5 58 6.5 56 Q 4 52 3.3 49   L 3.5 9 Z" fill="#feffb1" stroke="black" />
                <path d="M -5 0 L -5 10 Q 0 12 5 10 L 5 0" fill="#b9e3de" stroke="black" />
            </g>

            <g id="mpbhBody">
                <rect x="-10" y="15" width="20" height="10" rx="2" ry="2" fill="#5c6c64" stroke="none"/>
                <rect x="-11" y="-15" width="22" height="35" rx="2" ry="2" fill="#b9e3de" stroke="none"/>
            </g>

            <g id="mpbhWhole">
                <use xlink:href="#mpbhArm" transform="translate(-8.5, -1) rotate(35) scale(0.8)" />
                <use xlink:href="#mpbhArm" transform="translate(8.5, -1) rotate(-35) scale(-0.8, 0.8)"/>
                <use xlink:href="#mpbhLeg" transform="translate(-6, 30) rotate(35) scale(0.8)" />
                <use xlink:href="#mpbhLeg" transform="translate(6, 30) rotate(-35) scale(-0.8, 0.8)"/>
                <use xlink:href="#mpbhBody" transform="translate(0, 10)"/>
                <use xlink:href="#mpbhHead" transform="translate(0, -25)"/>
            </g>

            <g id="mpbhSnowball">
                <circle id="snowball" cx="0" cy="0" r="50" fill="white" stroke="black" />
                <use xlink:href="#mpbhHead" transform="translate(0, -60)"/>
                <use xlink:href="#mpbhArm" transform="translate(-25, -20) rotate(110) scale(0.8)" />
                <use xlink:href="#mpbhArm" transform="translate(25, -20) rotate(-110) scale(-0.8, 0.8)"/>
                <use xlink:href="#mpbhLeg" transform="translate(-20, 20) rotate(35) scale(0.8)" />
                <use xlink:href="#mpbhLeg" transform="translate(20, 20) rotate(-35) scale(-0.8, 0.8)"/>
            </g>

            <g id="showMe">
                <!-- SHOW ME WHAT YOU GOT! -->
                <path d="M 240,5 Q 271,10 292,20 Q 330,38 347,52 Q 365,62 377,75 Q 411,88 426,104 Q 422,99 431,112 Q 460,290 446,400 C 415,466 415,476 410,544 L 399,597 Q 329,645 212,615 C 162,578 123,462 76,405 Q 56,368 48,326 Q 42,310 44,297 C 47,156 40,178 94,100 C 140,20 155,25 200,8 Q 222,4 240,5 Z" stroke="black" fill="#e5c74c" stroke-width="2"/>

                <!-- eyes -->
                <circle cx="232" cy="197" r="57" fill="#E0EDFF" stroke="black" stroke-width="1" />
                <circle cx="380" cy="196" r="55" fill="#E0EDFF" stroke="black" stroke-width="1" />

                <!-- pupils right -->
                <g transform="translate(10,-3)">
                    <path d="M 228,191 L 229,191 L 230,191 L 232,191 L 235,193 L 235,196 L 234,199 L 232,201 L 229,201 L 226,199 L 225,197 L 225,195 L 225,195 Z" fill="#3a0fb9"/>
                </g>

                <!-- pupils left -->
                <g transform="translate(160,-3)">
                    <path d="M 228,191 L 229,191 L 230,191 L 232,191 L 235,193 L 235,196 L 234,199 L 232,201 L 229,201 L 226,199 L 225,197 L 225,195 L 225,195 Z" fill="#3a0fb9"/>
                </g>

                <!-- eyebrows'wrinkles -->
                <path d="M 162,130 Q 204,135 230,132 C 290,130 298,160 431,123" fill="#f5a33f" stroke="none"/>


                <!-- eyebrows -->
                <path d="M 138,138 Q 192,102 308,115 Q 335,115 377,107 Q 429,100 446,115 C 455,130 440,125 439,126 Q 395,121 356,132 C 310,140 262,128 254,129 Q 212,125 148,151 C 140,155 132,144 138,138 Z" fill="#e1d969" stroke="black" />

                <!-- linear gradient -->
                <linearGradient id="gradientWrinkles" x1="50%" y1="50%" x2="100%" y2="100%">
                    <stop offset="0%" stop-color="#f5a33f" />
                    <stop offset="80%" stop-color="#f5a33f" />
                </linearGradient>

                <!-- wrinkles's shadow -->
                <!-- first -->
                <path d="M 215,50 Q 250,30 316,50 Z" fill="url(#gradientWrinkles)" stroke="none"/>
                <!-- second -->
                <path d="M 193,78 Q 287,58 347,78 Z" fill="url(#gradientWrinkles)" stroke="none"/>

                <!-- wrinkles -->
                <path d="M 157,62 C 261,31 328,55 345,52" fill="transparent" stroke="#ad5000"/>
                <path d="M 150,91 C 252,54 345,88 375,75" fill="transparent" stroke="#ad5000"/>

                <!-- mouth -->
                <path d="M205 400 C 330 370, 339 370, 408 393" stroke="black" fill="transparent"/>

                <!-- mouth's wrinkles -->
                <!-- right -->
                <path d="M 206,377 Q 160,410 218,418" fill="transparent" stroke="#ad5000"/>
                <!-- left -->
                <path d="M 405,373 Q 445,405 395,410" fill="transparent" stroke="#ad5000"/>

                <!-- nose -->
                <path d="M302 227 C343,346 369,324 266 331" stroke="black" fill="transparent" />
            </g>

            <g id="tooth">
                <path d="M 41,37 C 40,53 60,53 59,37 Z" fill="white" stroke="black" stroke-width="0.33"/>
            </g>

            <g id="teeth-up">
                <!-- centre -->
                <use xlink:href="#tooth" transform="translate(-4.5,2)"/>
                <!-- centre-gauche -->
                <use xlink:href="#tooth" transform="translate(-21.9, 6.8) rotate(-3) scale(0.95,0.95)"/>
                <!-- gauche -->
                <use xlink:href="#tooth" transform="translate(-39.5, 15.4) rotate(-9) scale(0.90,0.90)"/>
                <!-- centre-droite -->
                <use xlink:href="#tooth" transform="translate(20.7, -0.5) rotate(7) scale(0.95,0.95)"/>
                <!-- droite -->
                <use xlink:href="#tooth" transform="translate(44.2, 0.7) rotate(13) scale(0.90,0.90)"/>
            </g>

            <g id="teeth-bottom">
                <!-- centre-droit -->
                <use xlink:href="#tooth" transform="translate(-0.6,0.8) rotate(8) scale(0.85,0.85)"/>
                <!-- centre-gauche -->
                <use xlink:href="#tooth" transform="translate(5.8,13) rotate(-8.5) scale(0.85,0.85)"/>
                <!-- gauche -->
                <use xlink:href="#tooth" transform="translate(14, 19) rotate(-21) scale(0.90,0.90)"/>
                <!-- droite -->
                <use xlink:href="#tooth" transform="translate(-8.5, -13) rotate(21) scale(0.90,0.90)"/>
                <!-- extrême-gauche -->
                <use xlink:href="#tooth" transform="translate(42.5, 7.5) rotate(-7.3) scale(0.75,0.75)"/>
                <!-- extrême-droite -->
                <use xlink:href="#tooth" transform="translate(-27.3, -2) rotate(7.3) scale(0.75,0.75)"/>
            </g>

            <g id="showMeMouth">
                <!-- wrinkles -->
                <!-- right -->
                <path d="M 68,122 C 130,140 145,55 76,40.5" style="fill:#e5c74c;stroke:#ad5000;stroke-width:1" transform="scale(1.2,1.2) translate(-12,-12.5)"/>
                <!-- left -->
                <path d="M 10,39 04,40 C -65,55 -50,140 12,122" style="fill:#e5c74c;stroke:#ad5000;stroke-width:1" transform="scale(1.2,1.2) translate(-4.5,-12.5)"/>

                <!-- mouth -->
                <path d="M 12,122 Q 40,108 68,122 C 130,140 145,55 76,42 Q 40,35 04,42 C -65,55 -50,140 12,122 Z" style="fill:#6e0000;stroke:black;stroke-width:0.33"/>

                <!-- teeth-up -->
                <!--
                <use xlink:href="#teeth-up" transform="translate(-5,0.6) rotate(-1.2)"/>
            -->
            <!-- teeth-bottom -->
            <!--<use xlink:href="#teeth-bottom" transform="translate(85,154) rotate(180)"/>-->

            <!-- tongue -->
            <path d="M -23,120 Q -10,80 40,80 C 50,80 40,70 30,70 Q -5,70 -35,110 Z" fill="#c62946" stroke="none"/>

            <!-- mouth's borders -->
            <path d="M 12,122 Q 40,108 68,122 C 130,140 145,55 76,42 Q 40,35 04,42 C -65,55 -50,140 12,122 Z" style="fill:transparent;stroke:black;stroke-width:1"/>

        </g>

        <linearGradient  id="windowGrad" gradientUnits="userSpaceOnUse"
            x1="220" y1="60" x2="280" y2="40">

            <stop offset="0" style="stop-color:#66ccff;stop-opacity:0.1"/>
            <stop offset="1" style="stop-color:#66ccff;stop-opacity:0.3"/>

        </linearGradient>

        <linearGradient  id="gradRed" gradientUnits="userSpaceOnUse"
            x1="0" y1="0" x2="0" y2="100">

            <stop offset="0" style="stop-color:#ff8989"/>
            <stop offset="0.7" style="stop-color:red"/>
            <stop offset="1" style="stop-color:black"/>

        </linearGradient>

        <linearGradient  id="gradYellow" gradientUnits="userSpaceOnUse"
            x1="10" y1="50" x2="10" y2="120">

            <stop offset="0.6" style="stop-color:yellow"/>
            <stop offset="1" style="stop-color:black"/>

        </linearGradient>

        <g id="rearRotor">
            <polygon points="-5 -20 5 20 -5 20 5 -20" color="black">
                <animateTransform begin="0" attributeName="transform" type="rotate" values="0; 360" dur="0.3s" repeatCount="indefinite"/>
            </polygon>
        </g>

        <g id="topRotors">
            <polygon fill="black" points="100 12 110 10 200 15 195 15 ">
                <animate attributeName="points" dur="0.4s" values="100 12 110 10 200 15 195 15; 290 10 300 12 200 15 195 15; 100 12 110 10 200 15 195 15 " repeatCount="indefinite"/>
            </polygon>

            <polygon fill="black" points="290 15 300 17 200 20 195 20">
                <animate begin="0.01" attributeName="points" dur="0.4s" values="290 10 300 12 200 15 195 15; 100 12 110 10 200 15 195 15; 290 10 300 12 200 15 195 15 " repeatCount="indefinite"/>
            </polygon>
        </g>

        <g id="JMV">
            <!-- shoulders -->
            <path d="M 820,600 L 780,625 H 815 Z" fill="#998675" stroke="black" stroke-width="1.8"/>

            <!-- neck -->
            <path d="M 872,558 V 625 H 815 V 558 Z" fill="#998675" stroke="black" stroke-width="1.8"/>

            <!-- hair bottom -->
            <path d="M 848,500 Q 869,504 893,502 Q 896,522 895,545 L 883,535 Q 895,550 872,587 Q 877,577 876,569 L 873,574 L 873,561 Q 882,562 882,543 L 870,534 Q 868,538 863,541 Q 861,524 859,511 Z" fill="#21130f" stroke-width="1" stroke="black"/>

            <!-- face -->
            <path d="M 816,480 L 848,500 L 859,511 Q 861,524 863,541 Q 868,538 870,534 L 882,543 C 883,571 863,560 864,556 C 866,588 820,605 801,589 Q 800,583 801,578 C 804,558 786,554 795,516 Q 806,486 817,480 Z" fill="#998675" stroke-width="1" stroke="black"/>

            <!-- bandana -->
            <path d="M 804,488 Q 840,495 892.5,495 Q 906,499 928,518 L 921,523 Q 905,507 893,500 L 900,505 Q 905,512 918,541 L 908,545 Q 899,516 894.5,506 L 893,495 V 502 Q 842,503 798,499" fill="#472313" stroke-width="2" stroke="black"/>

            <!-- hair top -->
            <path d="M 786,508 Q 800,455 844,454 Q 885,455 893,495 Q 868,496 837,492 Q 839,498 840,508 Q 831,500 824,488 Q 824,493 824,501 Q 819,493 817,480 Q 820,473 827,468 Q 820,473 817,479 Q 803,493 795,515 Q 792,500 797,488 Q 791,496 786,508 Z" fill="#21130f" stroke-width="1" stroke="black"/>
            <!--L 883,535 Q 888,566 872,587 Q 876,578 876,568 Q 874.7,574 872.7,577 V 560-->

            <!-- left eye -->
            <path d="M 799,525 H 818 C 818,516 799,516 799,525 Z" fill="white" stroke-width="0.5" stroke="black"/>
            <!-- left pupil -->
            <path d="M 803,524.5 H 809 C 809,521 803,521 803,524.5 Z" fill="black" stroke-width="1" stroke="black"/>
            <!-- left eyebrow -->
            <path d="M 796.4,516.6 L 818.4,521 L 803,509 Z" fill="black" stroke-width="1" stroke="black"/>
            <!-- right eye -->
            <path d="M 829,528 H 848 C 848,519 829,519 829,528 Z" fill="white" stroke-width="0.5" stroke="black"/>
            <!-- right pupil -->
            <path d="M 834,527.5 H 840 C 840,524 834,524 834,527.5 Z" fill="black" stroke-width="1" stroke="black"/>
            <!-- right eyebrow -->
            <path d="M 828,524 L 845,512 L 855,518 Z" fill="black" stroke-width="1" stroke="black"/>

            <!-- nose part left -->
            <path d="M 818,515 V 520 C 812,535 812,545 813,545 C 815,547 822,547 825,543" fill="#998675" stroke-width="0.9" stroke="black"/>
            <!-- nose part right-->
            <path d="M 828.5,517 L 828,524.5" fill="transparent" stroke-width="0.9" stroke="black"/>

            <!-- mouth -->
            <path d="M 806,562.5 L 835,564.4 C 837,558 804,557 806,562.5 Z" fill="white" stroke-width="0.5" stroke="black"/>

            <!-- ear -->
            <path d="M 870.5,538.3 C 864.5,544.5 878,544 871,550" fill="transparent" stroke-width="1.3" stroke="black"/>

        </g>

        <g id="chopper">

            <!-- JMV -->
            <use xlink:href="#JMV" transform="translate(355, -12) scale(-0.12, 0.12)"/>

            <use xlink:href="#rearRotor" transform="translate(63 38)"/>
            <use xlink:href="#rearRotor" transform="translate(63 38)"/>
            <rect fill="black" x="195" y="15" width="5" height="5" />
            <use xlink:href="#topRotors" />

            <!-- <path d="M 31 5 h 16 0 l 75 31" stroke="red" stroke-width="2" fill="none" /> -->
            <path d="M 31 5 H 47 L 77 31 H 134 Q 182 15 230 22 Q 231 23 233 26 Q 252 29 257 37 L 266 38 L269 40 L225 40 L250 62 L300 62 L 304 65 V 72 Q 284 88 263 87 H 188 Q 172 83 136 43 H 77 L 73 55 H 59 Z" stroke-width="2" fill="url(#gradRed)" />
            <path d="M 197 84 h 2 V 102 H 182 V 104 H 274 L 283 101 L 278 101 L 275 102 L 262 102 L 256 84 h 2 L 264 102 H 197" fill="url(#gradYellow)" />
            <path d="M 185 40 h 7 v 10 h 10 v 7 h -10 v 10 h -7 v -10 h -10 v -7 h 10 v -10" fill="white" />

            <!-- windows -->
            <path d="M 269 40 L300 62 L250 62 L225 40 Z " fill="url(#windowGrad)" />

        </g>

        <g id="houseWindow">
            <rect x="0" y="2" width="40" height="25" fill="#331f00" />
            <rect x="0" y="0" width="40" height="25" fill="#b3ffff" stroke="#8b4513" stroke-width="2" />
        </g>

        <g id="house">
            <polygon points="25 100 100 50 175 100 175 200 25 200" fill="#8b5a2b" />
            <polygon points="25 102 100 50 175 100 175 104 100 52 25 104" fill="#331f00" />
            <polygon points="20 105 100 50 180 105 185 105 100 45 15 105" fill="#8b4513" />
            <polygon points="15 105 100 45 185 105 190 105 100 40 10 105" fill="#e6e6e6" />

            <circle cx="100" cy="87" r="18" fill="#331f00"/>
            <circle cx="100" cy="85" r="17" fill="#b3ffff" stroke="#8b4513" stroke-width="3" />
            <rect x="83" y="83" height="4" width="35" fill="#8b4513" />
            <rect x="98" y="68" height="35" width="4" fill="#8b4513" />

            <use xlink:href="#houseWindow" transform="translate(35, 115)"/>
            <use xlink:href="#houseWindow" transform="translate(125, 115)"/>

            <rect x="83" y="158" width="34" height="42" fill="#8b4513" />
            <rect x="85" y="160" width="30" height="40" fill="#804000"/>
        </g>

    </defs>

    <!--




    DRAWING




-->

<linearGradient  id="GradSky" gradientUnits="userSpaceOnUse"
    x1="450" y1="0" x2="450" y2="600">

    <stop offset="0" style="stop-color:midnightblue"/>

    <stop offset="0.2" style="stop-color:royalblue"/>

    <stop offset="0.65" style="stop-color:lightskyblue"/>

</linearGradient>

<rect x="-10" y="-10" height="620" width="10000" fill="url(#GradSky)" />

<use id="sunObj" xlink:href="#sun" transform="translate(800 100)"/>

<use id="showMeObj" xlink:href="#showMe" />

<use id="showMeMouthObj" xlink:href="#showMeMouth" transform="translate(195 110) scale(0.7)" visibility="hidden"/>

<use xlink:href="#bgMountains" transform="translate(0, 100)"/>
<use xlink:href="#bgMountains" transform="translate(900, 100)"/>
<use xlink:href="#bgMountains" transform="translate(1800, 50)"/>
<use xlink:href="#bgMountains" transform="translate(3600, 50)"/>
<use xlink:href="#bgMountains" transform="translate(4500, 50)"/>
<use xlink:href="#bgMountains" transform="translate(5400, 50)"/>
<use xlink:href="#bgMountains" transform="translate(6300, 50)"/>
<use xlink:href="#bgMountains" transform="translate(7200, 50)"/>
<use xlink:href="#bgMountains" transform="translate(8100, 50)"/>
<use xlink:href="#bgMountains" transform="translate(9000, 50)"/>
<use xlink:href="#bgMountains" transform="translate(9900, 50)"/>

<use xlink:href="#k2" />

<linearGradient  id="gradAvalanche" gradientUnits="userSpaceOnUse"
    x1="850" y1="110" x2="1100" y2="720">

    <stop offset="0" style="stop-color:lavender"/>

    <stop id="snow1" offset="0" style="stop-color:gainsboro"/>

    <stop id="snow2" offset="0" style="stop-color:aliceblue"/>

</linearGradient>

<path d="M675 190 L665 255 L660 315 L680 315 L730 420 L920 620 L920 620 L1200 620 L920 375 L816 300 L765 240 L730 230" fill="url(#gradAvalanche)" />

<linearGradient  id="gradFade" gradientUnits="userSpaceOnUse"
    x1="1350" y1="300" x2="1600" y2="300">

    <stop offset="0" style="stop-color:lavender;stop-opacity:0"/>

    <stop offset="0.9" style="stop-color:honeydew;stop-opacity:1" />

</linearGradient>

<rect x="1350" y="0" width="250" height="600" fill="url(#gradFade)" />

<use xlink:href="#closeUpBackground" transform="translate(1600, 0)" />

<!-- Close Up -->

<path d="M 1600 0 Q 1850 400 2500 350 L 2500 600 L 1600 600 Z" fill="honeydew" />

<linearGradient  id="avalancheCloseUp" gradientUnits="userSpaceOnUse"
    x1="1600" y1="0" x2="2450" y2="350">

    <stop offset="0" style="stop-color:white"/>
    <stop id="snowEdge" offset="0" style="stop-color:white"/>
    <stop id="snowFade" offset="0.1" style="stop-color:white;stop-opacity:0"/>

</linearGradient>

<path d="M 1600 0 L 1615 0 Q 1900 395 2400 300 L 2520 600 L 1600 600 Z" fill="url(#avalancheCloseUp)" />

<path id="snowRoll" d="M 0 0 Q 30 0 30 30 L -50 600 L -60 600 Z" fill="white" visibility="hidden">
    <animateMotion path="M 1614 0 Q 1900 395 2400 300" begin="switchView.end" dur="1.93s" rotate="auto" />
</path>

<rect x="2500" y="350" width="7500" height="250" fill="white" />

<use xlink:href="#tree" transform="translate(2450, 70) scale(3)" />
<use xlink:href="#tree" transform="translate(2370, 80) scale(3.5)" />
<use xlink:href="#tree" transform="translate(2400, 100) scale(4.0)" />
<use xlink:href="#tree" transform="translate(2330, 90) scale(3.5)" />
<use xlink:href="#tree" transform="translate(2500, 90) scale(3.8)" />
<use xlink:href="#tree" transform="translate(2450, 110) scale(5)" />

<use xlink:href="#tree" transform="translate(2630, 115) scale(3.5)" />
<use xlink:href="#tree" transform="translate(2700, 120) scale(3.8)" />
<use xlink:href="#tree" transform="translate(2690, 110) scale(4.3)" />
<use xlink:href="#tree" transform="translate(2750, 117) scale(5)" />
<use xlink:href="#tree" transform="translate(3600, 115) scale(3.5)" />
<use xlink:href="#tree" transform="translate(2300, 110) scale(3.8)" />
<use xlink:href="#tree" transform="translate(3350, 110) scale(3.8)" />
<use xlink:href="#tree" transform="translate(3750, 110) scale(4.3)" />
<use xlink:href="#tree" transform="translate(3030, 115) scale(3.5)" />
<use xlink:href="#tree" transform="translate(2900, 110) scale(3.8)" />
<use xlink:href="#tree" transform="translate(3190, 110) scale(4.3)" />
<use xlink:href="#tree" transform="translate(2950, 115) scale(5)" />

<use xlink:href="#tree" transform="translate(3350, 100) scale(5)" />
<use xlink:href="#house" transform="translate(3400, 100) scale(1.5)" />
<use xlink:href="#tree" transform="translate(4150, 100) scale(5)" />
<use xlink:href="#tree" transform="translate(4700, 110) scale(5.5)" />
<use xlink:href="#house" transform="translate(4200, 110) scale(1.7)" />
<use xlink:href="#tree" transform="translate(4800, 90) scale(5)" />
<use xlink:href="#tree" transform="translate(4840, 120) scale(6)" />
<use xlink:href="#tree" transform="translate(5158, 100) scale(5)" />
<use xlink:href="#tree" transform="translate(5100, 110) scale(5.5)" />
<use xlink:href="#tree" transform="translate(5000, 115) scale(5.7)" />
<use xlink:href="#tree" transform="translate(5300, 120) scale(6)" />
<use xlink:href="#tree" transform="translate(5700, 90) scale(4)" />
<use xlink:href="#tree" transform="translate(6100, 90) scale(4.5)" />
<use xlink:href="#house" transform="translate(5400, 100) scale(1.7)" />
<use xlink:href="#house" transform="translate(5700, 90) scale(1.6)" />
<use xlink:href="#house" transform="translate(6000, 105) scale(1.7)" />
<use xlink:href="#tree" transform="translate(6550, 90) scale(4.5)" />
<use xlink:href="#tree" transform="translate(6950, 90) scale(4.5)" />
<use xlink:href="#tree" transform="translate(6450, 100) scale(5)" />
<use xlink:href="#tree" transform="translate(6700, 110) scale(5.5)" />
<use xlink:href="#tree" transform="translate(7000, 110) scale(5.5)" />
<use xlink:href="#tree" transform="translate(7200, 100) scale(5)" />
<use xlink:href="#tree" transform="translate(7300, 90) scale(4.9)" />
<use xlink:href="#tree" transform="translate(7550, 100) scale(4.9)" />
<use xlink:href="#tree" transform="translate(7800, 100) scale(5)" />
<use xlink:href="#tree" transform="translate(8500, 90) scale(4.9)" />
<use xlink:href="#tree" transform="translate(8800, 105) scale(5)" />
<use xlink:href="#tree" transform="translate(8100, 115) scale(4.9)" />
<use xlink:href="#tree" transform="translate(8300, 80) scale(5)" />
<use xlink:href="#house" transform="translate(9400, 105) scale(1.7)" />
<use xlink:href="#tree" transform="translate(9300, 90) scale(4.5)" />
<use xlink:href="#tree" transform="translate(9700, 110) scale(5)" />
<use xlink:href="#tree" transform="translate(9900, 100) scale(5)" />

<use id="helicopter" xlink:href="#chopper" transform="scale(-1.5, 1.5)" visibility="hidden"/>

<use xlink:href="#house" transform="translate(8900, 170) scale(2.5)" />
<use xlink:href="#tree" transform="translate(8700, 200) scale(8)" />
<use xlink:href="#tree" transform="translate(8500, 180) scale(7.5)" />
<use xlink:href="#tree" transform="translate(8200, 240) scale(9)" />
<use xlink:href="#tree" transform="translate(7900, 230) scale(8)" />
<use xlink:href="#tree" transform="translate(7700, 230) scale(8)" />
<use xlink:href="#house" transform="translate(6200, 170) scale(2.5)" />
<use xlink:href="#house" transform="translate(6700, 180) scale(2.8)" />
<use xlink:href="#tree" transform="translate(6600, 230) scale(8)" />
<use xlink:href="#tree" transform="translate(6100, 230) scale(8)" />
<use xlink:href="#tree" transform="translate(5700, 220) scale(8)" />
<use xlink:href="#tree" transform="translate(5250, 220) scale(7.5)" />
<use xlink:href="#house" transform="translate(4500, 170) scale(2.5)" />
<use xlink:href="#tree" transform="translate(4250, 200) scale(7)" />
<use xlink:href="#tree" transform="translate(2670, 125) scale(5.5)" />
<use xlink:href="#tree" transform="translate(2760, 145) scale(6)" />
<use xlink:href="#tree" transform="translate(3270, 125) scale(5.5)" />
<use xlink:href="#tree" transform="translate(3360, 150) scale(6)" />
<use xlink:href="#tree" transform="translate(3650, 120) scale(5)" />
<use xlink:href="#tree" transform="translate(3555, 125) scale(5.5)" />
<use xlink:href="#tree" transform="translate(3800, 150) scale(6)" />
<use xlink:href="#tree" transform="translate(2370, 120) scale(5.5)" />
<use xlink:href="#tree" transform="translate(2460, 135) scale(6)" />

<rect id="rope" x="2320" y="183" width="3" height="0" fill="#ffb84d" />

<use id="m1" xlink:href="#mpbhSnowball" transform="translate(-100 0) scale(0.7)"/>

<!-- Speech Bubble and text always on top, should stay at the end of drawing -->


<use id="speechBubbleObj" xlink:href="#speechBubble" transform="translate(400 70)" visibility="hidden" />
<text id="textShowMe1" x="400" y="60" text-anchor="middle" visibility="hidden" font-size="25" font-weight="bolder" font-family="calibri">
    <tspan>SHOW ME</tspan>
    <tspan x="400" y="85">WHAT YOU GOT</tspan>
</text>
<!--<text id="textShowMe2" x="350" y="80" text-anchor="middle" visibility="hidden" font-size="15">WHAT YOU GOT</text>-->
<text id="textMpbh1" x="2200" y="340" text-anchor="middle" visibility="hidden" font-size="20" font-weight="bolder" font-family="calibri">
    <tspan>Oooh weee</tspan>
    <tspan x="2200" y="360">It feels like all my</tspan>
    <tspan x="2200" y="380">bones are broken into</tspan>
    <tspan x="2200" y="400">a million pieces</tspan>
</text>

<text id="disqualified" x="400" y="70" text-anchor="middle" visibility="hidden" font-size="25" font-weight="bolder" font-family="calibri">
    <tspan>DISQUALIFIED</tspan>
</text>


<!--


ANIMATIONS


-->

<animateTransform id="showMeMove" xlink:href="#showMeObj" attributeName="transform" type="scale" from="0.3" to="0.5" dur="5s" fill="freeze" additive="sum"/>
<animateTransform id="showMeMove" xlink:href="#showMeObj" attributeName="transform" type="translate" from="-180 300" to="140 -90" dur="5s" fill="freeze" additive="sum"/>

<animate begin="showMeMove.end + 1" attributeType= "XML" xlink:href="#showMeMouthObj" attributeName="visibility" from="hidden" to="visible" fill="freeze" dur="0.01s"/>
<animate begin="showMeMove.end + 1" attributeType= "XML" xlink:href="#speechBubbleObj" attributeName="visibility" from="hidden" to="visible" fill="freeze" dur="0.01s"/>
<animate begin="showMeMove.end + 1" attributeType= "XML" xlink:href="#textShowMe1" attributeName="visibility" from="hidden" to="visible" fill="freeze" dur="0.01s"/>
<animate begin="showMeMove.end + 1" attributeType= "XML" xlink:href="#textShowMe2" attributeName="visibility" from="hidden" to="visible" fill="freeze" dur="0.01s"/>

<animate id="shake" attributeName="viewBox" dur="3s" begin="showMeMove.end + 1" values="0 0 900 600; -10 0 900 600; 0 -10 900 600;  0 0 900 600; 0 10 900 600;  10 10 900 600;  10 0 900 600;  0 0 900 600; -10 0 900 600; 0 -10 900 600;  0 0 900 600;  0 10 900 600;  10 10 900 600;  10 0 900 600;  0 0 900 600; -10 0 900 600; 0 -10 900 600;  0 0 900 600;  0 10 900 600;  10 10 900 600;  10 0 900 600;  0 0 900 600; -10 0 900 600; 0 -10 900 600;  0 0 900 600;  0 10 900 600;  10 10 900 600;  10 0 900 600;  0 0 900 600; 0 10 900 600;  10 10 900 600;  10 0 900 600;  0 0 900 600; -10 0 900 600; 0 -10 900 600;  0 0 900 600;  0 10 900 600;  10 10 900 600;  10 0 900 600;  0 0 900 600; -10 0 900 600; 0 -10 900 600;  0 0 900 600;  0 10 900 600;  10 10 900 600;  10 0 900 600;  0 0 900 600; -10 0 900 600; 0 -10 900 600;  0 0 900 600;  0 10 900 600;  10 10 900 600;  10 0 900 600;  0 0 900 600;" fill="freeze"/>

<animate begin="shake.end" attributeType= "XML" xlink:href="#showMeMouthObj" attributeName="visibility" from="visible" to="hidden" fill="freeze" dur="0.01s"/>
<animate begin="shake.end" attributeType= "XML" xlink:href="#speechBubbleObj" attributeName="visibility" from="visible" to="hidden" fill="freeze" dur="0.01s"/>
<animate begin="shake.end" attributeType= "XML" xlink:href="#textShowMe1" attributeName="visibility" from="visible" to="hidden" fill="freeze" dur="0.01s"/>
<animate begin="shake.end" attributeType= "XML" xlink:href="#textShowMe2" attributeName="visibility" from="visible" to="hidden" fill="freeze" dur="0.01s"/>

<animate id="panToAvalanche" attributeName="viewBox" dur="1.5s" begin="shake.end + 1s" values="0 0 900 600; 400 0 900 600;" fill="freeze"/>
<animateTransform id="panToAvalancheSun" xlink:href="#sunObj" attributeName="transform" attributeType="XML" type="translate" dur="1.5s" begin="shake.end + 1s" from="0 0" to="100 0" fill="freeze" additive="sum"/>

<animate id="avalanche" begin="panToAvalanche.end" attributeType= "XML" xlink:href="#snow1" attributeName="offset" from="0" to="1" fill="freeze" dur="7s"/>
<animate attributeType="XML" begin="panToAvalanche.end" xlink:href="#snow2" attributeName="offset" from="0.1" to="1.1" fill="freeze" dur="7s"/>
<animate id="milkShake" attributeName="viewBox" dur="5s" begin="panToAvalanche.end" values="400 0 900 600; 395 0 900 600; 400 -5 900 600; 400 0 900 600; 400 5 900 600;  405 5 900 600;  405 0 900 600; 400 0 900 600; 395 0 900 600; 400 -5 900 600; 400 0 900 600; 400 5 900 600;  405 5 900 600;  405 0 900 600; 400 0 900 600; 395 0 900 600; 400 -5 900 600; 400 0 900 600; 400 5 900 600;  405 5 900 600;  405 0 900 600; 400 0 900 600; 395 0 900 600; 400 -5 900 600; 400 0 900 600; 400 5 900 600;  405 5 900 600;  405 0 900 600; 400 0 900 600; 400 5 900 600; 405 5 900 600;  405 0 900 600; 400 0 900 600; 395 0 900 600; 400 -5 900 600; 400 0 900 600; 400 5 900 600;  405 5 900 600;  405 0 900 600; 400 0 900 600; 395 0 900 600; 400 -5 900 600; 400 0 900 600; 400 5 900 600;  405 5 900 600;  405 0 900 600;  400 0 900 600; 395 0 900 600; 400 -5 900 600;  400 0 900 600;  400 5 900 600;  405 5 900 600;  405 0 900 600;  400 0 900 600;" fill="freeze"/>

<animate id="switchView" attributeName="viewBox" dur="0.3s" begin="avalanche.end + 0.5" values="400 0 900 600; 1600 0 900 600;" fill="freeze"/>

<animate begin="switchView.end" attributeType= "XML" xlink:href="#snowRoll" attributeName="visibility" from="hidden" to="visible" fill="freeze" dur="0.01s"/>
<animate begin="switchView.end" attributeType= "XML" xlink:href="#snowEdge" attributeName="offset" from="0" to="0.99" fill="freeze" dur="2s"/>
<animate begin="switchView.end" attributeType= "XML" xlink:href="#snowFade" attributeName="offset" from="0.01" to="1" fill="freeze" dur="2s"/>
<animate id="avaClose" begin="switchView.end" attributeType= "XML" xlink:href="#avalancheCloseUp" attributeName="y2" from="350" to="0" fill="freeze" dur="2s"/>

<animateTransform begin="avaClose.end" xlink:href="#m1" attributeName="transform" attributeType="XML" type="rotate" values="0; 360" dur="1s" end="mpbhTumble.end" repeatCount="indefinite" additive="sum"/>
<animateMotion id="mpbhTumble" begin="avaClose.end" xlink:href="#m1" path="M 1600 0 Q 1800 395 2420 500" dur="5s" fill="freeze"/>

<animate begin="mpbhTumble.end" attributeType= "XML" xlink:href="#snowRoll" attributeName="visibility" from="visible" to="hidden" fill="freeze" dur="0.01s"/>
<animate begin="mpbhTumble.end" attributeType= "XML" xlink:href="#speechBubbleObj" attributeName="visibility" from="hidden" to="visible" fill="freeze" dur="0.01s"/>
<animate begin="mpbhTumble.end" attributeType= "XML" xlink:href="#textMpbh1" attributeName="visibility" from="hidden" to="visible" fill="freeze" dur="0.01s"/>
<animateTransform begin="mpbhTumble.end" attributeType= "XML" xlink:href="#speechBubbleObj" attributeName="transform" type="translate" from="0 0" to="2200 370" fill="freeze" dur="0.01s" />
<animateTransform begin="mpbhTumble.end" attributeType= "XML" xlink:href="#speechBubbleObj" attributeName="transform" type="scale" from="1 1" to="-1 1" fill="freeze" dur="0.01s" additive="sum"/>

<animate begin="mpbhTumble.end + 5" attributeType= "XML" xlink:href="#textMpbh1" attributeName="visibility" from="visible" to="hidden" fill="freeze" dur="0.01s"/>
<animate begin="mpbhTumble.end + 5" attributeType= "XML" xlink:href="#speechBubbleObj" attributeName="visibility" from="visible" to="hidden" fill="freeze" dur="0.01s"/>
<animate begin="mpbhTumble.end + 5" attributeType= "XML" xlink:href="#helicopter" attributeName="visibility" from="hidden" to="visible" fill="freeze" dur="0.01s"/>
<animate id="toJMV" begin="mpbhTumble.end + 5" attributeName="viewBox" dur="0.002s" values="1600 0 900 600; 9100 0 900 600" fill="freeze"/>

<animate id="flight" attributeName="viewBox" dur="10s" begin="toJMV.end" values="9100 0 900 600; 1800 0 900 600" fill="freeze"/>
<animateTransform begin="mpbhTumble.end + 5" attributeType= "XML" xlink:href="#helicopter" attributeName="transform" type="translate" from="-6600 20" to="-1750 20" fill="freeze" dur="10s" additive="sum" />

<animate id="ropeDown" begin="flight.end + 1" dur="1s" xlink:href="#rope" attributeName="height" from="0" to="250" fill="freeze"/>

<animateTransform id="rescue" begin="ropeDown.end + 1" dur="4s" xlink:href="#rope" attributeName="transform" type="translate" from="0 0" to="-200 -600" fill="freeze"/>
<animateTransform id="rescue" begin="ropeDown.end + 1" dur="4s" xlink:href="#m1" attributeName="transform" type="translate" from="0 0" to="-275 -860" fill="freeze" additive="sum"/>
<animateTransform id="rescueH" begin="ropeDown.end + 1" dur="5.85s" xlink:href="#helicopter" attributeName="transform" type="translate" from="0 0" to="200 -600" fill="freeze" additive="sum"/>

<animate id="gotoHeadEnd" attributeName="viewBox" dur="0.01s" begin="rescueH.end" values="1800 0 900 600; 0 0 900 600" fill="freeze"/>
<animateTransform begin="gotoHeadEnd.end + 1.5" attributeType= "XML" xlink:href="#speechBubbleObj" attributeName="transform" type="translate" from="2200 370" to="400 70" fill="freeze" dur="0.01s" />
<animate begin="gotoHeadEnd.end + 1.5" attributeType= "XML" xlink:href="#speechBubbleObj" attributeName="visibility" from="hidden" to="visible" fill="freeze" dur="0.01s"/>
<animate begin="gotoHeadEnd.end + 1.5" attributeType= "XML" xlink:href="#disqualified" attributeName="visibility" from="hidden" to="visible" fill="freeze" dur="0.01s"/>
<animate begin="gotoHeadEnd.end + 1.5" attributeType= "XML" xlink:href="#showMeMouthObj" attributeName="visibility" from="hidden" to="visible" fill="freeze" dur="0.01s"/>

<animate begin="gotoHeadEnd.end + 4" attributeType= "XML" xlink:href="#speechBubbleObj" attributeName="visibility" from="visible" to="hidden" fill="freeze" dur="0.01s"/>
<animate begin="gotoHeadEnd.end + 4" attributeType= "XML" xlink:href="#disqualified" attributeName="visibility" from="visible" to="hidden" fill="freeze" dur="0.01s"/>
<animate begin="gotoHeadEnd.end + 4" attributeType= "XML" xlink:href="#showMeMouthObj" attributeName="visibility" from="visible" to="hidden" fill="freeze" dur="0.01s"/>


</svg>
